<svg width="38" height="39" viewBox="0 0 38 39" fill="none" xmlns="http://www.w3.org/2000/svg">
<g filter="url(#filter0_d_2_334)">
<path fill-rule="evenodd" clip-rule="evenodd" d="M5.47338 4.91308C6.54959 2.98225 8.6233 1.66663 11.0002 1.66663H23.0002C23.5525 1.66663 24.0002 2.11434 24.0002 2.66663V16C24.0002 18.0189 22.3525 19.6666 20.3335 19.6666H19.0002C18.4479 19.6666 18.0002 19.2189 18.0002 18.6666C18.0002 18.1143 18.4479 17.6666 19.0002 17.6666H20.3335C21.2479 17.6666 22.0002 16.9143 22.0002 16V3.66663H11.0002C9.37706 3.66663 7.95747 4.56431 7.22034 5.8868C6.95146 6.36921 6.34241 6.54231 5.86 6.27342C5.37759 6.00454 5.2045 5.39549 5.47338 4.91308Z" fill="#A4A4A4"/>
<path fill-rule="evenodd" clip-rule="evenodd" d="M22.0003 6.66663C22.0003 6.11434 22.448 5.66663 23.0003 5.66663H25.4537C26.7788 5.66663 27.984 6.38395 28.6385 7.51117L28.6418 7.51685L28.6418 7.51686L30.9217 11.5035C31.0987 11.813 31.0975 12.1933 30.9186 12.5017C30.7397 12.8101 30.4102 13 30.0536 13H28.3337C28.1526 13 28.0003 13.1522 28.0003 13.3333V17.3333C28.0003 17.5143 28.1526 17.6666 28.3337 17.6666H32.3337C32.8859 17.6666 33.3337 18.1143 33.3337 18.6666V22.6666C33.3337 25.4322 31.0993 27.6666 28.3337 27.6666H27.0003C26.448 27.6666 26.0003 27.2189 26.0003 26.6666C26.0003 25.7522 25.248 25 24.3337 25C23.4193 25 22.667 25.7522 22.667 26.6666C22.667 27.2189 22.2193 27.6666 21.667 27.6666H16.3337C15.7814 27.6666 15.3337 27.2189 15.3337 26.6666C15.3337 25.7522 14.5814 25 13.667 25C12.7526 25 12.0003 25.7522 12.0003 26.6666C12.0003 27.2189 11.5526 27.6666 11.0003 27.6666H9.66699C6.90137 27.6666 4.66699 25.4322 4.66699 22.6666C4.66699 22.1143 5.11471 21.6666 5.66699 21.6666C6.21928 21.6666 6.66699 22.1143 6.66699 22.6666C6.66699 24.3277 8.00594 25.6666 9.66699 25.6666H10.1394C10.5767 24.1308 11.9945 23 13.667 23C15.3395 23 16.7573 24.1308 17.1946 25.6666H20.8061C21.2434 24.1308 22.6611 23 24.3337 23C26.0062 23 27.424 24.1308 27.8612 25.6666H28.3337C29.9947 25.6666 31.3337 24.3277 31.3337 22.6666V19.6666H28.3337C27.048 19.6666 26.0003 18.6189 26.0003 17.3333V13.3333C26.0003 12.049 27.0459 11.0021 28.3298 11L26.9089 8.51544C26.9084 8.51461 26.9079 8.51378 26.9074 8.51295C26.6017 7.98831 26.0476 7.66663 25.4537 7.66663H24.0003V16C24.0003 18.0189 22.3526 19.6666 20.3337 19.6666H19.0003C18.448 19.6666 18.0003 19.2189 18.0003 18.6666C18.0003 18.1143 18.448 17.6666 19.0003 17.6666H20.3337C21.248 17.6666 22.0003 16.9143 22.0003 16V6.66663Z" fill="#A4A4A4"/>
<path fill-rule="evenodd" clip-rule="evenodd" d="M13.6667 25C12.7462 25 12 25.7462 12 26.6667C12 27.5871 12.7462 28.3333 13.6667 28.3333C14.5871 28.3333 15.3333 27.5871 15.3333 26.6667C15.3333 25.7462 14.5871 25 13.6667 25ZM10 26.6667C10 24.6416 11.6416 23 13.6667 23C15.6917 23 17.3333 24.6416 17.3333 26.6667C17.3333 28.6917 15.6917 30.3333 13.6667 30.3333C11.6416 30.3333 10 28.6917 10 26.6667Z" fill="#A4A4A4"/>
<path fill-rule="evenodd" clip-rule="evenodd" d="M24.3337 24.9999C23.4132 24.9999 22.667 25.7461 22.667 26.6666C22.667 27.5871 23.4132 28.3333 24.3337 28.3333C25.2541 28.3333 26.0003 27.5871 26.0003 26.6666C26.0003 25.7461 25.2541 24.9999 24.3337 24.9999ZM20.667 26.6666C20.667 24.6416 22.3086 22.9999 24.3337 22.9999C26.3587 22.9999 28.0003 24.6416 28.0003 26.6666C28.0003 28.6917 26.3587 30.3333 24.3337 30.3333C22.3086 30.3333 20.667 28.6917 20.667 26.6666Z" fill="#A4A4A4"/>
<path fill-rule="evenodd" clip-rule="evenodd" d="M28.3333 13C28.1523 13 28 13.1523 28 13.3333V17.3333C28 17.5144 28.1523 17.6667 28.3333 17.6667H31.3333V16.265L29.4723 13H28.3333ZM26 13.3333C26 12.0477 27.0477 11 28.3333 11H30.0533C30.4125 11 30.7442 11.1927 30.9221 11.5048L33.2021 15.5048C33.2881 15.6557 33.3333 15.8263 33.3333 16V18.6667C33.3333 19.219 32.8856 19.6667 32.3333 19.6667H28.3333C27.0477 19.6667 26 18.619 26 17.3333V13.3333Z" fill="#A4A4A4"/>
<path fill-rule="evenodd" clip-rule="evenodd" d="M4.66699 10.6666C4.66699 10.1143 5.11471 9.66663 5.66699 9.66663H13.667C14.2193 9.66663 14.667 10.1143 14.667 10.6666C14.667 11.2189 14.2193 11.6666 13.667 11.6666H5.66699C5.11471 11.6666 4.66699 11.2189 4.66699 10.6666Z" fill="#A4A4A4"/>
<path fill-rule="evenodd" clip-rule="evenodd" d="M4.66699 14.6666C4.66699 14.1143 5.11471 13.6666 5.66699 13.6666H11.0003C11.5526 13.6666 12.0003 14.1143 12.0003 14.6666C12.0003 15.2189 11.5526 15.6666 11.0003 15.6666H5.66699C5.11471 15.6666 4.66699 15.2189 4.66699 14.6666Z" fill="#A4A4A4"/>
<path fill-rule="evenodd" clip-rule="evenodd" d="M4.66699 18.6666C4.66699 18.1143 5.11471 17.6666 5.66699 17.6666H8.33366C8.88594 17.6666 9.33366 18.1143 9.33366 18.6666C9.33366 19.2189 8.88594 19.6666 8.33366 19.6666H5.66699C5.11471 19.6666 4.66699 19.2189 4.66699 18.6666Z" fill="#A4A4A4"/>
</g>
<defs>
<filter id="filter0_d_2_334" x="-1" y="0" width="40" height="40" filterUnits="userSpaceOnUse" color-interpolation-filters="sRGB">
<feFlood flood-opacity="0" result="BackgroundImageFix"/>
<feColorMatrix in="SourceAlpha" type="matrix" values="0 0 0 0 0 0 0 0 0 0 0 0 0 0 0 0 0 0 127 0" result="hardAlpha"/>
<feOffset dy="4"/>
<feGaussianBlur stdDeviation="2"/>
<feComposite in2="hardAlpha" operator="out"/>
<feColorMatrix type="matrix" values="0 0 0 0 0 0 0 0 0 0 0 0 0 0 0 0 0 0 0.25 0"/>
<feBlend mode="normal" in2="BackgroundImageFix" result="effect1_dropShadow_2_334"/>
<feBlend mode="normal" in="SourceGraphic" in2="effect1_dropShadow_2_334" result="shape"/>
</filter>
</defs>
</svg>
